<svg xmlns="http://www.w3.org/2000/svg" width="48" height="48" viewBox="0 0 48 48">
  <path fill="#172154" fill-rule="evenodd" d="M9.52695652,6.30438569 L34.5130435,20.95169 L26.1130435,25.9885596 L1.04347826,11.3944726 L9.52695652,6.30438569 Z M36.5196522,19.7026466 L11.5325217,5.05534221 L21.3756522,-0.850744745 C21.7022609,-1.04587518 22.1102609,-1.05109257 22.4389565,-0.858049093 L46.9575652,13.443864 L36.5196522,19.7026466 Z M27.1304348,27.7645596 L48,15.2522118 L48,31.347864 C48,31.6880379 47.834087,32.0073422 47.5544348,32.2024726 L27.1304348,46.4991683 L27.1304348,27.7645596 Z M25.0434783,27.7739509 L25.0434783,46.5565596 L0.517565217,32.2494292 C0.197217391,32.0626466 0,31.7182987 0,31.347864 L0,13.1955161 L25.0434783,27.7739509 Z" transform="translate(0 1)"/>
</svg>
